# xmcd CD database file
#
# Track frame offsets:
#	150
#	16342
#	30167
#	74507
#	94200
#	116525
#	131250
#	146305
#	162007
#	178825
#	191042
#
# Disc length: 2787 seconds
#
# Revision: 0
# Processed by: cddbd v1.5.1PL0 Copyright (c) Steve Scherf et al.
# Submitted via: cdripper 1.0.9
#
DISCID=8b0ae10b
DTITLE=Nelle Mirando - Nelle Mirando and The Gipsy Boys - A Tribute to Stéphane Grappelli
DYEAR=1999
DGENRE=Jazz
TTITLE0=Minor Swing (D. Reinhardt/S. Grappelli)
TTITLE1=Swing 44 (D. Reinhardt/S. Grappelli)
TTITLE2=Les Feuilles Mortes (J. Kosma)
TTITLE3=Minor Blues (D. Reinhardt)
TTITLE4=Tears (D. Reinhardt/S. Grappelli)
TTITLE5=I Can't Give You Anything But Love (J. Mc.Hugh)
TTITLE6=Es A Doi (Nello Mirando)
TTITLE7=Stephan (Nello Mirando)
TTITLE8=Nuages (D. Reinhardt/S. Grappelli)
TTITLE9=Aoske Doe Krainman (Nello Mirando)
TTITLE10=All Of Me (S. Simons)
EXTD=YEAR: 1999
EXTT0=
EXTT1=
EXTT2=
EXTT3=
EXTT4=
EXTT5=
EXTT6=
EXTT7=
EXTT8=
EXTT9=
EXTT10=
PLAYORDER=
